<svg width="270" height="261" viewBox="0 0 270 261" fill="none" xmlns="http://www.w3.org/2000/svg">
<path d="M202.823 14.6704C223.191 25.6144 240.519 43.5504 252.375 64.2224C264.231 84.8944 270.463 107.846 268.943 129.886C267.423 151.926 257.999 173.054 244.927 191.75C231.855 210.446 215.135 226.71 195.831 238.566C176.527 250.422 155.703 258.022 133.815 259.846C111.927 261.67 88.9751 257.718 68.7591 246.47C48.5431 235.222 31.0631 216.678 18.7511 195.398C6.43912 174.118 -0.704884 150.102 0.0551156 126.086C0.815116 102.07 9.47911 78.0544 23.7671 57.6864C38.0551 37.3184 57.9671 20.5984 79.3991 10.5664C100.831 0.534417 123.631 -2.80958 147.799 2.51042C171.967 7.83042 202.823 21.8144 202.823 14.6704Z" fill="#A3A6FF"/>
</svg>
