<svg width="21" height="32" viewBox="0 0 21 32" fill="none" xmlns="http://www.w3.org/2000/svg">
<rect x="2" y="2" width="16.39" height="28" rx="8.195" fill="#0F1930"/>
<rect x="2" y="2" width="16.39" height="28" rx="8.195" stroke="#060E20" stroke-width="4"/>
<path d="M7.19507 21.25C6.92007 21.25 6.68465 21.1521 6.48882 20.9563C6.29299 20.7604 6.19507 20.525 6.19507 20.25V15.25C6.19507 14.975 6.29299 14.7396 6.48882 14.5438C6.68465 14.3479 6.92007 14.25 7.19507 14.25H7.69507V13.25C7.69507 12.5583 7.93882 11.9688 8.42632 11.4812C8.91382 10.9937 9.5034 10.75 10.1951 10.75C10.8867 10.75 11.4763 10.9937 11.9638 11.4812C12.4513 11.9688 12.6951 12.5583 12.6951 13.25V14.25H13.1951C13.4701 14.25 13.7055 14.3479 13.9013 14.5438C14.0972 14.7396 14.1951 14.975 14.1951 15.25V20.25C14.1951 20.525 14.0972 20.7604 13.9013 20.9563C13.7055 21.1521 13.4701 21.25 13.1951 21.25H7.19507ZM7.19507 20.25H13.1951V15.25H7.19507V20.25ZM10.1951 18.75C10.4701 18.75 10.7055 18.6521 10.9013 18.4563C11.0972 18.2604 11.1951 18.025 11.1951 17.75C11.1951 17.475 11.0972 17.2396 10.9013 17.0437C10.7055 16.8479 10.4701 16.75 10.1951 16.75C9.92007 16.75 9.68465 16.8479 9.48882 17.0437C9.29298 17.2396 9.19507 17.475 9.19507 17.75C9.19507 18.025 9.29298 18.2604 9.48882 18.4563C9.68465 18.6521 9.92007 18.75 10.1951 18.75ZM8.69507 14.25H11.6951V13.25C11.6951 12.8333 11.5492 12.4792 11.2576 12.1875C10.9659 11.8958 10.6117 11.75 10.1951 11.75C9.7784 11.75 9.42424 11.8958 9.13257 12.1875C8.8409 12.4792 8.69507 12.8333 8.69507 13.25V14.25ZM7.19507 20.25V15.25V20.25Z" fill="#A3AAC4"/>
</svg>
