<svg width="21" height="32" viewBox="0 0 21 32" fill="none" xmlns="http://www.w3.org/2000/svg">
<rect x="2" y="2" width="16.02" height="28" rx="8.01" fill="#A3A6FF"/>
<rect x="2" y="2" width="16.02" height="28" rx="8.01" stroke="#060E20" stroke-width="4"/>
<path d="M8.01001 20H12.01V18.5C12.01 17.95 11.8142 17.4792 11.4225 17.0875C11.0308 16.6958 10.56 16.5 10.01 16.5C9.46001 16.5 8.98918 16.6958 8.59751 17.0875C8.20584 17.4792 8.01001 17.95 8.01001 18.5V20ZM10.01 15.5C10.56 15.5 11.0308 15.3042 11.4225 14.9125C11.8142 14.5208 12.01 14.05 12.01 13.5V12H8.01001V13.5C8.01001 14.05 8.20584 14.5208 8.59751 14.9125C8.98918 15.3042 9.46001 15.5 10.01 15.5ZM6.01001 21V20H7.01001V18.5C7.01001 17.9917 7.12876 17.5146 7.36626 17.0687C7.60376 16.6229 7.93501 16.2667 8.36001 16C7.93501 15.7333 7.60376 15.3771 7.36626 14.9313C7.12876 14.4854 7.01001 14.0083 7.01001 13.5V12H6.01001V11H14.01V12H13.01V13.5C13.01 14.0083 12.8913 14.4854 12.6538 14.9313C12.4163 15.3771 12.085 15.7333 11.66 16C12.085 16.2667 12.4163 16.6229 12.6538 17.0687C12.8913 17.5146 13.01 17.9917 13.01 18.5V20H14.01V21H6.01001Z" fill="#0F00A4"/>
</svg>
